<?xml version="1.0" encoding="utf-8"?>
<!-- Generator: Adobe Illustrator 22.1.0, SVG Export Plug-In . SVG Version: 6.00 Build 0)  -->
<svg version="1.1" id="Layer_1" xmlns="http://www.w3.org/2000/svg" xmlns:xlink="http://www.w3.org/1999/xlink" x="0px" y="0px"
	 viewBox="0 0 256 256" style="enable-background:new 0 0 256 256;" xml:space="preserve">
<style type="text/css">
	.st0{fill:#60A138;stroke:#231F20;stroke-width:18.6865;stroke-miterlimit:10;}
	.st1{fill:url(#SVGID_1_);}
	.st2{fill:url(#SVGID_2_);}
	.st3{fill:url(#SVGID_3_);}
	.st4{fill:url(#SVGID_4_);}
	.st5{fill:url(#SVGID_5_);}
	.st6{fill:#60A138;}
	.st7{fill:#008DB8;}
	.st8{fill:url(#SVGID_6_);}
	.st9{fill:url(#SVGID_7_);}
	.st10{fill:url(#SVGID_8_);}
	.st11{fill:url(#SVGID_9_);}
	.st12{fill:url(#SVGID_10_);}
</style>
<g>
	<path class="st0" d="M-1036.3,109.3"/>
	
		<radialGradient id="SVGID_1_" cx="-851.6695" cy="146.2271" r="273.6054" fx="-930.4763" fy="124.4548" gradientTransform="matrix(0.9596 -0.27 0.2241 0.7965 -67.8314 -199.8203)" gradientUnits="userSpaceOnUse">
		<stop  offset="0.8164" style="stop-color:#008DB8"/>
		<stop  offset="1" style="stop-color:#60A138"/>
	</radialGradient>
	<path class="st1" d="M-1123.4,137.2c0,0,80.8-69.1,148.7-127.3c11.2-9.6,22.7-19.7,35.1-30c12.7-10.4,25.9-20.5,40.4-30.1
		c14.6-9.6,29.9-18.9,47.8-26.3c4.5-1.8,9.2-3.5,14.2-4.9l3.9-1l1-0.2l0.5-0.1c-0.2,0,0.9-0.2,0.9-0.2l1.6-0.3l6.7-1.2
		c4.4-0.8,10-1.3,15-1.9c5-0.2,10-0.8,15.1-0.6c40.6-0.5,82.6,14.7,116.2,41c33.8,26.2,60.1,62.9,74.2,104.8
		c3.5,10.5,6.3,21.3,8,32.4c1,5.5,1.5,11.1,2,16.8l0.5,8.5l0.1,8c-0.2,22.9-3.8,44.4-10.3,65.6c-12.9,42-38.2,79.5-70.8,107.2
		c-32.6,27.8-73.1,44.3-112.3,49.3c-4.9,0.6-9.8,1-14.6,1.5l-7.2,0.3l-3.6,0.1l-0.9,0l-1.9,0l-1.5,0l-6.1-0.2l-8.1-0.6
		c-5.7-0.4-10-1.3-14.9-2c-18.9-3.5-36.1-9.2-51.5-16.1c-30.9-13.7-55.2-30.9-75.2-47.1c-20-16.3-36-31.6-48.4-44.8
		c-12.4-13.2-21.7-23.8-27.8-31.2c-6-7.5-9.2-11.4-9.2-11.4l49.7-41.9c0,0,3.2,3.5,9.1,10c6,6.4,14.7,15.9,26.3,27.3
		c11.7,11.2,25.8,24.9,43.2,38.6c8.6,6.8,18,13.7,28.1,20.2c10,6.6,20.8,12.9,32.2,18.2c11.4,5.3,23.5,9.4,35.7,11.9
		c2.9,0.4,6.5,1.2,8.8,1.3l4.1,0.5l6.1,0.2l1.5,0.1l0.4,0c-0.3,0,1.3,0-0.7,0l0.6,0l2.6,0l5.2,0c3.4-0.2,6.9-0.3,10.4-0.6
		c27.8-2.5,56.1-13,80.6-31.9c24.6-18.6,44.7-45.9,56.8-77c2.9-7.8,5.4-15.9,7.3-24c0.9-4.1,1.7-8.2,2.3-12.4
		c0.7-4.5,1-7.3,1.4-12.2l0.4-6.6l0-6.2c-0.1-4.1-0.1-8.3-0.7-12.5c-0.7-8.3-2.3-16.7-4.5-25c-8.7-33.2-28-64.4-53.6-87.6
		c-25.6-23.2-58.1-37.8-91.2-39.9c-4.1-0.5-8.3-0.2-12.4-0.4c-4.1,0.3-7.5,0.1-12.1,0.7l-6.7,0.7l-1.7,0.2c-0.3,0,0.6-0.1,0.1,0
		l-0.3,0.1l-0.7,0.1l-2.7,0.5c-3.7,0.8-7.4,1.9-11.2,3.1c-15.3,5.1-30.3,12.8-44.5,20.9c-14.2,8.1-27.7,17.1-40.2,26
		c-12.7,9.1-24.9,18.6-36.5,27.5c-23.2,17.9-44.6,34.4-63.3,49.3c-18.7,14.8-34.8,28-47.9,39c-13.2,11-23.2,19.8-30,26
		c-6.8,6.3-10.4,9.6-10.4,9.6L-1123.4,137.2z"/>
	<path class="st0" d="M-1091.7,148.7"/>
	
		<radialGradient id="SVGID_2_" cx="-1272.3119" cy="111.1271" r="273.8676" gradientTransform="matrix(0.9597 -0.2698 0.2239 0.7965 -75.5234 -320.1115)" gradientUnits="userSpaceOnUse">
		<stop  offset="0.8164" style="stop-color:#008DB8"/>
		<stop  offset="1" style="stop-color:#60A138"/>
	</radialGradient>
	<path class="st2" d="M-1015.2,121.6c0,0-50.8,42.2-84.6,76.7c-17.1,16.5-36.8,34.6-58.7,54c-21.8,19.2-46.3,40.5-75.3,59.1
		c-14.6,9.3-29.9,18.3-48.2,25.1c-4.8,1.7-9.1,3-15.1,4.3c-4.5,0.7-8.4,1.7-13.5,2.3c-10.2,1.4-19.9,1.9-30,1.6
		c-40.2-0.9-81.4-16.6-114.1-43.3c-32.9-26.6-58.4-63.1-71.9-104.8c-3.3-10.5-6-21.2-7.6-32.2c-0.8-5.5-1.5-11-1.8-16.6l-0.2-4.2
		l-0.1-2.1l0-0.5l0-1.1l0-0.9l-0.1-7.2c0.2-11.6,1.3-22.5,3-33.2c1.8-10.8,4.4-21.4,7.6-31.8c13-41.5,38-78.5,70.1-105.9
		c32.2-27.5,72.1-44.1,110.8-49.4c4.8-0.8,9.7-1,14.5-1.6c2.4-0.2,4.8-0.2,7.2-0.4l3.6-0.2l1.8-0.1l0.9-0.1l1.9,0
		c4.3,0.2,7.3,0,13.4,0.6c2.7,0.3,5.6,0.5,8,0.8l7.2,1.1c19.1,3.2,36.3,9.4,51.7,16.5c30.7,14.4,54.3,32.4,73.5,49.4
		c19.2,17,34.3,32.7,46,46.1c11.7,13.4,20.4,24,26.2,31.2c5.6,7.2,8.6,11,8.6,11l-49.7,41.9c0,0-3.2-3.6-9.3-10.4
		c-6-6.7-14.5-16.5-25.6-28.2c-11.2-11.6-24.6-25.7-41.1-39.9c-8.2-7.1-17.2-14.1-26.8-20.8c-9.6-6.8-19.9-13.2-30.8-18.6
		c-11-5.2-22.5-9.5-34.4-11.8l-4.5-0.8c-1.5-0.3-2.5-0.3-3.8-0.5c-1.8-0.4-6.9-0.5-10.7-0.7c-3,0-6.1,0.1-9.1,0.1
		c-3.4,0.3-6.9,0.3-10.3,0.8c-27.5,2.7-55.4,13.3-79.6,31.9c-24.3,18.5-44.2,45.4-56.2,76.1c-2.9,7.7-5.4,15.6-7.4,23.7
		c-1.8,8.1-3.1,16.4-3.9,24.2l-0.4,7.2l0,0.9c0-0.1,0,0.9,0-0.2l0,0.4l0,1.5l0,3c-0.1,4.1,0.2,8.2,0.5,12.3
		c0.6,8.2,2.2,16.5,4.2,24.7c8.3,32.9,26.9,64,51.8,87.3c24.9,23.5,56.7,38.4,89.3,41.5c8.1,0.9,16.5,0.9,24.1,0.5
		c3.8-0.1,8.7-0.9,12.9-1.3c2.6-0.4,6.9-1.3,10.4-2.4c15-4.4,30-11.7,44-19.5c28.4-15.6,53.1-34.2,76.1-52
		c22.9-17.8,43.7-34.4,61.9-49.5c18.2-14.9,33.9-28.4,46.6-39.5c12.8-11.1,22.6-20,29.3-26.2c6.6-6.2,10.2-9.6,10.2-9.6
		L-1015.2,121.6z"/>
	<path class="st0" d="M-1091.7,209.6"/>
	<path class="st0" d="M-1036.3,48.4"/>
	
		<radialGradient id="SVGID_3_" cx="-1062.4299" cy="132.2567" r="333.427" gradientTransform="matrix(0.9942 -7.300339e-02 4.235116e-02 0.5768 -11.7672 -21.156)" gradientUnits="userSpaceOnUse">
		<stop  offset="0.3" style="stop-color:#60A138"/>
		<stop  offset="0.4724" style="stop-color:#60A138"/>
		<stop  offset="0.5" style="stop-color:#60A138"/>
		<stop  offset="0.6724" style="stop-color:#60A138"/>
		<stop  offset="0.7" style="stop-color:#60A138"/>
		<stop  offset="0.7979" style="stop-color:#60A138"/>
		<stop  offset="0.8148" style="stop-color:#60A138"/>
		<stop  offset="0.8499" style="stop-color:#5DA03C"/>
		<stop  offset="0.8824" style="stop-color:#559F47"/>
		<stop  offset="0.9139" style="stop-color:#479C5A"/>
		<stop  offset="0.9447" style="stop-color:#339874"/>
		<stop  offset="0.9747" style="stop-color:#1A9296"/>
		<stop  offset="1" style="stop-color:#008DB8"/>
	</radialGradient>
	<path class="st3" d="M-883.9,33.1l0.4-0.1C-883.2,32.9-884.8,33.3-883.9,33.1z"/>
	
		<radialGradient id="SVGID_4_" cx="-855.4157" cy="119.7616" r="111.4339" gradientTransform="matrix(0.5182 0.8516 -0.8942 0.5441 -305.7206 783.5629)" gradientUnits="userSpaceOnUse">
		<stop  offset="0.8276" style="stop-color:#60A138"/>
		<stop  offset="1" style="stop-color:#008DB8"/>
	</radialGradient>
	<path class="st4" d="M-754.3,29.3c-10.9-18.4-28-34.6-48.8-45.1c-20.8-10.6-45.2-14.7-68.6-12.8c-5.8,0.5-11.6,1.2-18,2.5
		c-1.7,0.3-2.9,0.6-4,0.9l-3.5,0.8l-1.8,0.4l-3.2,0.9c-1.7,0.5-3.4,1.1-4.9,1.6c-12.1,4.5-21.3,9.5-30.7,14.6
		c-18.3,10.5-35.1,22.1-51.8,33.9c-26,19.1-51.3,38.9-76.2,59.9v77.3c9.1-7.6,17.9-15.1,26.2-22.1c29.6-25.4,54.4-43.2,85.7-65.6
		c15.6-11.3,31.4-22.2,46.6-31.4c7.5-4.6,15.2-9,21.1-11.4c0.8-0.4,1.3-0.5,1.9-0.8l0.5-0.2l0.2-0.1l-0.4,0.1
		c-0.9,0.2,0.7-0.2,0.4-0.1l1.3-0.4l3.5-1c1.2-0.4,2.3-0.7,3-0.8c2.9-0.8,6.5-1.6,10.1-2.2c14.2-2.2,28-0.7,40.2,4
		c12.4,4.7,22.9,13.2,31.2,23.6c8.4,10.3,15,22.6,18.4,36c1.7,6.6,2.6,13.6,2.7,20.2c0,4.4,0,6.7-0.4,10.2c-0.3,3.3-0.8,6.7-1.4,10
		c-5.1,26.4-19,49.3-37,61.2c-18,12.4-39.3,12.6-55.5,8.7c-16.4-4-28.6-10.6-36.6-15.4c-4.1-2.2-7-4.4-9.1-5.7c-2-1.3-3.1-2-3.1-2
		l-0.1-0.1c-0.8-0.5-1.8-0.4-2.4,0.4c-0.7,0.8-0.5,1.9,0.2,2.6c0,0,1,0.8,2.9,2.4c1.9,1.5,4.6,4.1,8.5,6.9
		c7.6,5.8,19.2,14.2,36.6,20.7c8.7,3.2,18.9,5.9,30.6,6.2c11.7,0.4,24.7-2.1,37.2-8.2c25.2-12.2,45.9-37.9,56.9-69.8
		c1.3-4,2.6-8.1,3.6-12.4c1-4.1,2-9.5,2.6-13c1.3-9.2,1.9-18.2,1.6-27.8C-738.6,68.3-743.3,47.8-754.3,29.3z"/>
	
		<radialGradient id="SVGID_5_" cx="-1276.0072" cy="133.8556" r="114.6361" gradientTransform="matrix(-0.7288 -0.6802 0.7142 -0.7652 -2300.8967 -631.2059)" gradientUnits="userSpaceOnUse">
		<stop  offset="0.8276" style="stop-color:#60A138"/>
		<stop  offset="1" style="stop-color:#008DB8"/>
	</radialGradient>
	<path class="st5" d="M-1085.7,104.3c-29.5,26.5-60.1,52.2-90.6,75.8c-15.2,11.8-30.6,23.1-45.8,32.5c-3.8,2.3-7.5,4.6-11.2,6.5
		c-1.8,1-3.6,1.9-5.4,2.8l-4.4,2c-6.6,2.6-14.7,4.6-21.9,5.5c-14.7,2-29,0.2-41.4-5.1c-12.5-5.2-23-14.2-30.8-25
		c-15.7-21.9-19.7-50.6-14.4-75.4c5.1-25.3,18.2-47.1,34.7-58.6c16.5-11.9,36.4-12.9,52.4-9.8c16.1,3.3,28.8,9.1,36.9,13.3
		c4.2,2,7.4,4,9.5,5.1c2.2,1.2,3.3,1.8,3.3,1.8c0.7,0.4,1.6,0.3,2.2-0.3c0.7-0.7,0.7-1.9-0.1-2.6c0,0-0.9-0.9-2.7-2.6
		c-1.9-1.7-4.2-4.4-8.1-7.4c-7.5-6.3-18.6-15.6-36.4-22.8c-8.8-3.5-19.4-6.6-31.6-7.1c-12.2-0.7-26,1.9-39.3,8.1
		c-13.2,6.3-25.3,16.3-35.5,28.7c-9.9,12.5-18.2,27.2-23.7,43.7c-2.7,8.3-4.7,17.1-5.9,26.4c-0.6,6.3-0.9,7.6-1,13.7
		c-0.1,5.3,0.2,9.8,0.6,14.7c1.8,19.3,8.2,39.3,19.7,57.3c11.5,17.9,28.5,33.7,49.2,43.6c20.7,10,44.6,13.8,67.5,11.6
		c5.7-0.5,11.4-1.4,17-2.5c2.8-0.5,5.5-1.3,8.3-1.9l2.1-0.5l2.5-0.8c1.2-0.4,2.1-0.6,4-1.3l4.8-1.8l4.1-1.7c2.6-1.2,5.2-2.3,7.7-3.5
		c5-2.4,9.7-5,14.3-7.6c18.3-10.4,35.2-21.9,52-33.7c24.5-17.5,51.8-39.8,77-61l16.4-53l-16.4-24.3
		C-1072.4,92.8-1079.1,98.5-1085.7,104.3z"/>
	<g>
		<path class="st6" d="M-1194.9,443.7c-7.1-8.9-16-14.2-23.8-14.2c-15.6,0-28.2,14-28.2,31.4c0,17.3,12.7,31.8,28.2,31.8
			c8,0,16.7-5.1,23.8-14.5l10.2,8c-7.3,9.6-19.8,15.3-34,15.3c-24,0-43.8-18.5-43.8-40.7c0-22.2,19.8-40.2,43.8-40.2
			c14.2,0,26.7,5.6,34,15.3L-1194.9,443.7z"/>
		<path class="st7" d="M-1040.9,454.5c11.3,10.7,18.2,24.2,18.2,37.6c0,30.7-27.6,55.6-58.9,55.6c-16.5,0-31.1-5.8-41.8-16.5
			c-11.1-11.1-17.1-24.9-17.1-39.1c0-5.8,1.3-12.2,3.8-19.3l13.8,4.9c-1.3,4-2,8.7-2,14.5c0,25.8,19.3,46.7,43.4,46.7
			c24.2,0,43.4-22.5,43.4-46.7c0-12.2-4.9-23.3-13.1-31.1c-8.9-7.8-20.2-14-31.8-16c-19.8-3.6-31.8-15.8-31.4-31.8
			c0.2-6.9,3.8-13.8,9.3-19.3c5.6-5.1,13.6-7.8,23.6-7.8c15.3,0,32.2,10,32.9,27.4h-15.6c0-10.4-7.6-18.5-17.3-18.5
			c-10,0-16.9,8-17.3,18.5c-0.2,6.7,1.3,11.6,4.7,15.1c4,4,8.9,6.7,14.2,7.6C-1064.7,439-1050.5,445.9-1040.9,454.5z"/>
		<path class="st6" d="M-902.8,420.6l-28.5,37.6l32.5,43.1H-915l-24.5-32.2l-23.8,32.2H-980l32.2-43.1l-29.8-37.6h16.2l21.8,26.5
			c6.9-8.9,13.8-17.6,20.5-26.5H-902.8z"/>
	</g>
</g>
<g>
	<path class="st0" d="M134.7,99"/>
	
		<radialGradient id="SVGID_6_" cx="183.4084" cy="107.5634" r="66.5918" fx="164.228" fy="102.2643" gradientTransform="matrix(0.9596 -0.27 0.2241 0.7965 -20.594 71.9207)" gradientUnits="userSpaceOnUse">
		<stop  offset="0.8164" style="stop-color:#008DB8"/>
		<stop  offset="1" style="stop-color:#60A138"/>
	</radialGradient>
	<path class="st8" d="M113.5,105.8c0,0,19.7-16.8,36.2-31c2.7-2.3,5.5-4.8,8.5-7.3c3.1-2.5,6.3-5,9.8-7.3c3.5-2.3,7.3-4.6,11.6-6.4
		c1.1-0.4,2.2-0.8,3.5-1.2l0.9-0.2l0.2-0.1l0.1,0c-0.1,0,0.2,0,0.2,0l0.4-0.1l1.6-0.3c1.1-0.2,2.4-0.3,3.7-0.5
		c1.2,0,2.4-0.2,3.7-0.1c9.9-0.1,20.1,3.6,28.3,10c8.2,6.4,14.6,15.3,18.1,25.5c0.9,2.6,1.5,5.2,2,7.9c0.2,1.3,0.4,2.7,0.5,4.1
		l0.1,2.1l0,2c0,5.6-0.9,10.8-2.5,16c-3.1,10.2-9.3,19.3-17.2,26.1c-7.9,6.8-17.8,10.8-27.3,12c-1.2,0.2-2.4,0.3-3.6,0.4l-1.8,0.1
		l-0.9,0l-0.2,0l-0.5,0l-0.4,0l-1.5,0l-2-0.1c-1.4-0.1-2.4-0.3-3.6-0.5c-4.6-0.9-8.8-2.3-12.5-3.9c-7.5-3.3-13.4-7.5-18.3-11.5
		c-4.9-4-8.8-7.7-11.8-10.9c-3-3.2-5.3-5.8-6.8-7.6c-1.5-1.8-2.2-2.8-2.2-2.8l12.1-10.2c0,0,0.8,0.8,2.2,2.4
		c1.5,1.6,3.6,3.9,6.4,6.6c2.8,2.7,6.3,6.1,10.5,9.4c2.1,1.7,4.4,3.3,6.8,4.9c2.4,1.6,5.1,3.1,7.8,4.4c2.8,1.3,5.7,2.3,8.7,2.9
		c0.7,0.1,1.6,0.3,2.2,0.3l1,0.1l1.5,0.1l0.4,0l0.1,0c-0.1,0,0.3,0-0.2,0l0.2,0l0.6,0l1.3,0c0.8,0,1.7-0.1,2.5-0.2
		c6.8-0.6,13.7-3.2,19.6-7.8c6-4.5,10.9-11.2,13.8-18.7c0.7-1.9,1.3-3.9,1.8-5.9c0.2-1,0.4-2,0.6-3c0.2-1.1,0.3-1.8,0.3-3l0.1-1.6
		l0-1.5c0-1,0-2-0.2-3c-0.2-2-0.6-4.1-1.1-6.1c-2.1-8.1-6.8-15.7-13.1-21.3c-6.2-5.6-14.1-9.2-22.2-9.7c-1-0.1-2-0.1-3-0.1
		c-1,0.1-1.8,0-2.9,0.2l-1.6,0.2l-0.4,0c-0.1,0,0.2,0,0,0l-0.1,0l-0.2,0l-0.7,0.1c-0.9,0.2-1.8,0.5-2.7,0.8
		c-3.7,1.2-7.4,3.1-10.8,5.1c-3.4,2-6.7,4.2-9.8,6.3c-3.1,2.2-6,4.5-8.9,6.7c-5.7,4.4-10.9,8.4-15.4,12c-4.6,3.6-8.5,6.8-11.7,9.5
		c-3.2,2.7-5.6,4.8-7.3,6.3c-1.6,1.5-2.5,2.3-2.5,2.3L113.5,105.8z"/>
	<path class="st0" d="M121.3,108.6"/>
	
		<radialGradient id="SVGID_7_" cx="81.0299" cy="99.0206" r="66.6556" gradientTransform="matrix(0.9597 -0.2698 0.2239 0.7965 -22.4791 42.5376)" gradientUnits="userSpaceOnUse">
		<stop  offset="0.8164" style="stop-color:#008DB8"/>
		<stop  offset="1" style="stop-color:#60A138"/>
	</radialGradient>
	<path class="st9" d="M139.9,102c0,0-12.4,10.3-20.6,18.7c-4.2,4-9,8.4-14.3,13.1c-5.3,4.7-11.3,9.8-18.3,14.4
		c-3.6,2.3-7.3,4.5-11.7,6.1c-1.2,0.4-2.2,0.7-3.7,1.1c-1.1,0.2-2,0.4-3.3,0.6c-2.5,0.3-4.8,0.5-7.3,0.4c-9.8-0.2-19.8-4-27.8-10.5
		c-8-6.5-14.2-15.4-17.5-25.5c-0.8-2.5-1.5-5.2-1.9-7.8c-0.2-1.3-0.4-2.7-0.4-4.1l-0.1-1l0-0.5l0-0.1l0-0.3l0-0.2l0-1.8
		c0.1-2.8,0.3-5.5,0.7-8.1c0.4-2.6,1.1-5.2,1.8-7.7c3.2-10.1,9.2-19.1,17.1-25.8c7.8-6.7,17.5-10.7,27-12c1.2-0.2,2.4-0.3,3.5-0.4
		c0.6-0.1,1.2-0.1,1.7-0.1l0.9,0l0.4,0l0.2,0l0.5,0c1,0,1.8,0,3.3,0.2c0.6,0.1,1.4,0.1,1.9,0.2l1.8,0.3c4.6,0.8,8.8,2.3,12.6,4
		c7.5,3.5,13.2,7.9,17.9,12c4.7,4.1,8.4,8,11.2,11.2c2.8,3.3,5,5.8,6.4,7.6c1.4,1.7,2.1,2.7,2.1,2.7l-12.1,10.2c0,0-0.8-0.9-2.3-2.5
		c-1.5-1.6-3.5-4-6.2-6.9c-2.7-2.8-6-6.3-10-9.7c-2-1.7-4.2-3.4-6.5-5.1c-2.3-1.7-4.8-3.2-7.5-4.5c-2.7-1.3-5.5-2.3-8.4-2.9
		l-1.1-0.2c-0.4-0.1-0.6-0.1-0.9-0.1c-0.4-0.1-1.7-0.1-2.6-0.2c-0.7,0-1.5,0-2.2,0c-0.8,0.1-1.7,0.1-2.5,0.2
		c-6.7,0.6-13.5,3.2-19.4,7.8c-5.9,4.5-10.8,11-13.7,18.5c-0.7,1.9-1.3,3.8-1.8,5.8c-0.4,2-0.8,4-0.9,5.9l-0.1,1.8l0,0.2
		c0,0,0,0.2,0,0l0,0.1l0,0.4l0,0.7c0,1,0.1,2,0.1,3c0.2,2,0.5,4,1,6c2,8,6.5,15.6,12.6,21.3c6.1,5.7,13.8,9.3,21.7,10.1
		c2,0.2,4,0.2,5.9,0.1c0.9,0,2.1-0.2,3.2-0.3c0.6-0.1,1.7-0.3,2.5-0.6c3.6-1.1,7.3-2.9,10.7-4.7c6.9-3.8,12.9-8.3,18.5-12.7
		c5.6-4.3,10.6-8.4,15.1-12c4.4-3.6,8.2-6.9,11.4-9.6c3.1-2.7,5.5-4.9,7.1-6.4c1.6-1.5,2.5-2.3,2.5-2.3L139.9,102z"/>
	<path class="st0" d="M121.3,123.4"/>
	<path class="st0" d="M134.7,84.2"/>
	
		<radialGradient id="SVGID_8_" cx="132.1122" cy="104.1632" r="81.1515" gradientTransform="matrix(0.9942 -7.300339e-02 4.235116e-02 0.5768 -7.38 54.247)" gradientUnits="userSpaceOnUse">
		<stop  offset="0.3" style="stop-color:#60A138"/>
		<stop  offset="0.4724" style="stop-color:#60A138"/>
		<stop  offset="0.5" style="stop-color:#60A138"/>
		<stop  offset="0.6724" style="stop-color:#60A138"/>
		<stop  offset="0.7" style="stop-color:#60A138"/>
		<stop  offset="0.7979" style="stop-color:#60A138"/>
		<stop  offset="0.8148" style="stop-color:#60A138"/>
		<stop  offset="0.8499" style="stop-color:#5DA03C"/>
		<stop  offset="0.8824" style="stop-color:#559F47"/>
		<stop  offset="0.9139" style="stop-color:#479C5A"/>
		<stop  offset="0.9447" style="stop-color:#339874"/>
		<stop  offset="0.9747" style="stop-color:#1A9296"/>
		<stop  offset="1" style="stop-color:#008DB8"/>
	</radialGradient>
	<path class="st10" d="M171.8,80.4l0.1,0C172,80.4,171.6,80.5,171.8,80.4z"/>
	
		<radialGradient id="SVGID_9_" cx="182.4967" cy="101.1221" r="27.1215" gradientTransform="matrix(0.5182 0.8516 -0.8942 0.5441 174.459 -108.7881)" gradientUnits="userSpaceOnUse">
		<stop  offset="0.8276" style="stop-color:#60A138"/>
		<stop  offset="1" style="stop-color:#008DB8"/>
	</radialGradient>
	<path class="st11" d="M203.4,79.5c-2.7-4.5-6.8-8.4-11.9-11c-5.1-2.6-11-3.6-16.7-3.1c-1.4,0.1-2.8,0.3-4.4,0.6
		c-0.4,0.1-0.7,0.1-1,0.2l-0.9,0.2l-0.4,0.1l-0.8,0.2c-0.4,0.1-0.8,0.3-1.2,0.4c-2.9,1.1-5.2,2.3-7.5,3.6c-4.5,2.6-8.5,5.4-12.6,8.3
		c-6.3,4.6-12.5,9.5-18.6,14.6v18.8c2.2-1.9,4.4-3.7,6.4-5.4c7.2-6.2,13.2-10.5,20.9-16c3.8-2.8,7.6-5.4,11.4-7.6
		c1.8-1.1,3.7-2.2,5.1-2.8c0.2-0.1,0.3-0.1,0.5-0.2l0.1,0l0.1,0l-0.1,0c-0.2,0.1,0.2,0,0.1,0l0.3-0.1l0.8-0.2
		c0.3-0.1,0.6-0.2,0.7-0.2c0.7-0.2,1.6-0.4,2.5-0.5c3.5-0.5,6.8-0.2,9.8,1c3,1.1,5.6,3.2,7.6,5.7c2.1,2.5,3.6,5.5,4.5,8.8
		c0.4,1.6,0.6,3.3,0.7,4.9c0,1.1,0,1.6-0.1,2.5c-0.1,0.8-0.2,1.6-0.4,2.4c-1.3,6.4-4.6,12-9,14.9c-4.4,3-9.6,3.1-13.5,2.1
		c-4-1-7-2.6-8.9-3.7c-1-0.5-1.7-1.1-2.2-1.4c-0.5-0.3-0.8-0.5-0.8-0.5l0,0c-0.2-0.1-0.4-0.1-0.6,0.1c-0.2,0.2-0.1,0.5,0.1,0.6
		c0,0,0.2,0.2,0.7,0.6c0.5,0.4,1.1,1,2.1,1.7c1.9,1.4,4.7,3.5,8.9,5c2.1,0.8,4.6,1.4,7.5,1.5c2.8,0.1,6-0.5,9.1-2
		c6.1-3,11.2-9.2,13.9-17c0.3-1,0.6-2,0.9-3c0.2-1,0.5-2.3,0.6-3.2c0.3-2.2,0.5-4.4,0.4-6.8C207.2,89,206,84,203.4,79.5z"/>
	
		<radialGradient id="SVGID_10_" cx="80.1305" cy="104.5524" r="27.9009" gradientTransform="matrix(-0.7288 -0.6802 0.7142 -0.7652 60.2868 239.578)" gradientUnits="userSpaceOnUse">
		<stop  offset="0.8276" style="stop-color:#60A138"/>
		<stop  offset="1" style="stop-color:#008DB8"/>
	</radialGradient>
	<path class="st12" d="M122.7,97.8c-7.2,6.5-14.6,12.7-22.1,18.5c-3.7,2.9-7.5,5.6-11.1,7.9c-0.9,0.6-1.8,1.1-2.7,1.6
		c-0.4,0.3-0.9,0.5-1.3,0.7l-1.1,0.5c-1.6,0.6-3.6,1.1-5.3,1.3c-3.6,0.5-7,0-10.1-1.2c-3-1.3-5.6-3.5-7.5-6.1
		c-3.8-5.3-4.8-12.3-3.5-18.3c1.2-6.2,4.4-11.5,8.5-14.3c4-2.9,8.9-3.2,12.8-2.4c3.9,0.8,7,2.2,9,3.2c1,0.5,1.8,1,2.3,1.3
		c0.5,0.3,0.8,0.4,0.8,0.4c0.2,0.1,0.4,0.1,0.5-0.1c0.2-0.2,0.2-0.5,0-0.6c0,0-0.2-0.2-0.7-0.6c-0.5-0.4-1-1.1-2-1.8
		c-1.8-1.5-4.5-3.8-8.9-5.6c-2.2-0.9-4.7-1.6-7.7-1.7c-3-0.2-6.3,0.5-9.6,2c-3.2,1.5-6.2,4-8.6,7c-2.4,3-4.4,6.6-5.8,10.6
		c-0.7,2-1.2,4.2-1.4,6.4c-0.1,1.5-0.2,1.9-0.2,3.3c0,1.3,0,2.4,0.2,3.6c0.4,4.7,2,9.6,4.8,13.9c2.8,4.4,6.9,8.2,12,10.6
		c5,2.4,10.9,3.4,16.4,2.8c1.4-0.1,2.8-0.3,4.1-0.6c0.7-0.1,1.3-0.3,2-0.5l0.5-0.1l0.6-0.2c0.3-0.1,0.5-0.1,1-0.3l1.2-0.4l1-0.4
		c0.6-0.3,1.3-0.6,1.9-0.9c1.2-0.6,2.4-1.2,3.5-1.8c4.5-2.5,8.6-5.3,12.6-8.2c6-4.3,12.6-9.7,18.7-14.8l4-12.9l-4-5.9
		C126,95,124.3,96.4,122.7,97.8z"/>
	<g>
		<path class="st6" d="M96.1,180.4c-1.7-2.2-3.9-3.5-5.8-3.5c-3.8,0-6.9,3.4-6.9,7.6c0,4.2,3.1,7.7,6.9,7.7c1.9,0,4.1-1.2,5.8-3.5
			l2.5,1.9c-1.8,2.3-4.8,3.7-8.3,3.7c-5.8,0-10.7-4.5-10.7-9.9c0-5.4,4.8-9.8,10.7-9.8c3.5,0,6.5,1.4,8.3,3.7L96.1,180.4z"/>
		<path class="st7" d="M133.6,183c2.8,2.6,4.4,5.9,4.4,9.1c0,7.5-6.7,13.5-14.3,13.5c-4,0-7.6-1.4-10.2-4c-2.7-2.7-4.2-6.1-4.2-9.5
			c0-1.4,0.3-3,0.9-4.7l3.4,1.2c-0.3,1-0.5,2.1-0.5,3.5c0,6.3,4.7,11.4,10.6,11.4c5.9,0,10.6-5.5,10.6-11.4c0-3-1.2-5.7-3.2-7.6
			c-2.2-1.9-4.9-3.4-7.7-3.9c-4.8-0.9-7.7-3.8-7.6-7.7c0.1-1.7,0.9-3.4,2.3-4.7c1.4-1.2,3.3-1.9,5.7-1.9c3.7,0,7.8,2.4,8,6.7h-3.8
			c0-2.5-1.8-4.5-4.2-4.5c-2.4,0-4.1,1.9-4.2,4.5c-0.1,1.6,0.3,2.8,1.1,3.7c1,1,2.2,1.6,3.5,1.8C127.8,179.2,131.3,180.9,133.6,183z
			"/>
		<path class="st6" d="M167.2,174.7l-6.9,9.1l7.9,10.5h-4l-6-7.8l-5.8,7.8h-4.1l7.8-10.5l-7.3-9.1h4l5.3,6.4c1.7-2.2,3.4-4.3,5-6.4
			H167.2z"/>
	</g>
</g>
</svg>
